<?xml version="1.0" encoding="UTF-8" standalone="no"?>
<!DOCTYPE svg PUBLIC "-//W3C//DTD SVG 1.1//EN" "http://www.w3.org/Graphics/SVG/1.1/DTD/svg11.dtd">
<svg width="100%" height="100%" viewBox="0 0 448 119" version="1.1" xmlns="http://www.w3.org/2000/svg" xmlns:xlink="http://www.w3.org/1999/xlink" xml:space="preserve" xmlns:serif="http://www.serif.com/" style="fill-rule:evenodd;clip-rule:evenodd;stroke-linecap:round;stroke-linejoin:round;stroke-miterlimit:1.5;">
    <g transform="matrix(1,0,0,1,-193.462,-176.597)">
        <path d="M298.249,278.555L428.267,278.555C428.267,278.555 436.494,278.852 439.954,277.241C443.414,275.63 449.028,268.89 449.028,268.89L499.221,209.259C499.221,209.259 505.654,202.075 509.232,200.353C512.811,198.631 520.691,198.926 520.691,198.926L546.873,198.926" style="fill:none;stroke:rgb(250,251,253);stroke-width:7.99px;"/>
        <g transform="matrix(12.0101,0,0,12.0101,-2395.34,-2048.69)">
            <text x="215.577px" y="191.837px" style="font-family:'ArialMT', 'Arial', sans-serif;font-size:9px;fill:rgb(250,251,253);">simlif</text>
        </g>
        <g transform="matrix(1,0,0,1,362.016,32.2596)">
            <path d="M277.483,160.28C277.483,156.42 274.349,153.287 270.49,153.287L181.538,153.287C177.679,153.287 174.545,156.42 174.545,160.28L174.545,174.266C174.545,178.125 177.679,181.259 181.538,181.259L270.49,181.259C274.349,181.259 277.483,178.125 277.483,174.266L277.483,160.28Z" style="fill:rgb(250,251,253);stroke:rgb(128,128,128);stroke-width:3.34px;"/>
        </g>
        <path d="M444.719,199.24C444.719,199.24 447.727,199.045 450.935,200.364C453.484,201.411 455.025,203.443 455.025,203.443L482.502,232.4L476.657,237.946L449.815,209.657C449.815,209.657 448.017,207.486 446.861,206.981C445.704,206.476 442.877,206.627 442.877,206.627L438.545,206.627L438.545,199.24L444.719,199.24Z" style="fill:rgb(250,251,253);"/>
        <g transform="matrix(1,0,0,1,20.5874,111.888)">
            <path d="M277.483,160.28C277.483,156.42 274.349,153.287 270.49,153.287L181.538,153.287C177.679,153.287 174.545,156.42 174.545,160.28L174.545,174.266C174.545,178.125 177.679,181.259 181.538,181.259L270.49,181.259C274.349,181.259 277.483,178.125 277.483,174.266L277.483,160.28Z" style="fill:rgb(250,251,253);stroke:rgb(128,128,128);stroke-width:3.34px;"/>
        </g>
    </g>
</svg>
